<svg width="447" height="264" viewBox="0 0 447 264" fill="none" xmlns="http://www.w3.org/2000/svg">
<path d="M386.143 0H60.8568C27.2465 0 0 27.3735 0 61.1403V202.86C0 236.627 27.2465 264 60.8568 264H386.143C419.753 264 447 236.627 447 202.86V61.1403C447 27.3735 419.753 0 386.143 0Z" fill="#2E2E2E"/>
<path d="M188.358 63.3002H97.0733C87.4834 63.3002 79.7092 71.1106 79.7092 80.7451C79.7092 90.3797 87.4834 98.1901 97.0733 98.1901H188.358C197.948 98.1901 205.723 90.3797 205.723 80.7451C205.723 71.1106 197.948 63.3002 188.358 63.3002Z" fill="#FFFFFB"/>
<path d="M282.988 177.163L256.494 77.8247C254.012 68.5184 244.491 62.9957 235.228 65.4893C225.965 67.9829 220.468 77.5486 222.95 86.8549L249.444 186.193C251.926 195.499 261.447 201.022 270.71 198.528C279.973 196.034 285.47 186.469 282.988 177.163Z" fill="#FFFFFB"/>
<path d="M336.099 177.162L309.605 77.8247C307.123 68.5184 297.602 62.9957 288.339 65.4893C279.076 67.9829 273.578 77.5486 276.06 86.8549L302.554 186.193C305.037 195.499 314.558 201.022 323.821 198.528C333.084 196.034 338.581 186.469 336.099 177.162Z" fill="#FFFFFB"/>
<path d="M336.137 186.193L362.631 86.8549C365.113 77.5486 359.616 67.9829 350.353 65.4893C341.09 62.9957 331.569 68.5184 329.087 77.8247L302.592 177.162C300.11 186.469 305.608 196.034 314.871 198.528C324.134 201.022 333.655 195.499 336.137 186.193Z" fill="#FFFFFB"/>
<path d="M283.053 186.193L309.547 86.8549C312.029 77.5486 306.532 67.9829 297.269 65.4893C288.006 62.9957 278.484 68.5184 276.002 77.8247L249.508 177.162C247.026 186.469 252.523 196.034 261.786 198.528C271.049 201.022 280.571 195.499 283.053 186.193Z" fill="#FFFFFB"/>
<path d="M125.352 80.7451L125.352 183.587C125.352 193.222 133.126 201.032 142.716 201.032C152.306 201.032 160.08 193.222 160.08 183.587V80.7451C160.08 71.1106 152.306 63.3002 142.716 63.3002C133.126 63.3002 125.352 71.1106 125.352 80.7451Z" fill="#FFFFFB"/>
</svg>
